<svg xmlns="http://www.w3.org/2000/svg" width="665.542" height="800.039" viewBox="67.366 -0.039 665.542 800.039"><path d="M431.868 787.148l288.328-289.493c8.23-8.264 12.735-19.265 12.711-30.984-.023-11.733-4.579-22.71-12.837-30.94l-26.29-26.177c-8.251-8.225-19.259-12.743-30.985-12.719-11.72.024-23.08 4.587-31.297 12.845L462.925 578.567l-1.087-535.475c-.049-24.142-18.987-43.18-43.137-43.131l-37.093.075c-24.149.049-44.917 19.167-44.868 43.31l1.09 537.386-170.203-170.105c-8.264-8.224-18.972-12.742-30.699-12.718-11.714.023-22.56 4.585-30.783 12.842l-26.1 26.285c-8.23 8.263-12.702 19.257-12.679 30.99.024 11.721 4.599 22.702 12.863 30.933l289.494 288.322c8.29 8.249 19.343 12.773 31.083 12.718 11.778.002 22.819-4.561 31.062-12.851z"/></svg>