<svg xmlns="http://www.w3.org/2000/svg" width="50.969" height="47.539" viewBox="0 0 50.969 47.539"><path d="M35.453 31.392v-9.519h-17v-13h17V0l15.516 15.516-15.516 15.876zm-16-10.518h17v8.065l13.109-13.416L36.453 2.414v7.46h-17v11z"/><path d="M15.516 47.539L0 32.023l15.516-15.876v9.519h17v13h-17v8.873zM1.406 32.015l13.109 13.109v-7.459h17v-11h-17V18.6L1.406 32.015z"/><path d="M-.513-55.292h17m-17 0v11.999m0 0h17m0 0v8.792m0-20.791v-8.167m0 0L30.8-49.147m0 0L16.487-34.501m-17-20.791h17m-17 0v11.999m0 0h17m0 0v8.792m0-20.791v-8.167m0 0L30.8-49.147m0 0L16.487-34.501" fill="none"/><path d="M25.523-40.359v-9.519h-17v-13h17v-8.874l15.516 15.516-15.516 15.877zm-16-10.518h17v8.065l13.109-13.416-13.109-13.109v7.46h-17v11z"/><path d="M5.586-24.212l-23.05-59.849 23.05 28.457v9.519h17v13h-17v8.873zM-8.523-39.736l13.109 13.11v-7.459h17v-11h-17v-8.065L-8.523-39.736z"/></svg>