<svg xmlns="http://www.w3.org/2000/svg" width="38.078" height="41.377" viewBox="0 0 38.078 41.377"><path fill="#010101" d="M33.961 0H4.117A4.122 4.122 0 0 0 0 4.117V37.26a4.121 4.121 0 0 0 4.117 4.117h29.844a4.12 4.12 0 0 0 4.117-4.117V4.117A4.122 4.122 0 0 0 33.961 0m2.692 37.26a2.695 2.695 0 0 1-2.692 2.691H4.117a2.695 2.695 0 0 1-2.693-2.691V4.117a2.695 2.695 0 0 1 2.693-2.691h29.844a2.695 2.695 0 0 1 2.692 2.691V37.26z"/><path fill="#010101" d="M31.963 3.886H6.117a2.233 2.233 0 0 0-2.23 2.23v5.185c0 1.23 1 2.23 2.23 2.23h25.846c1.229 0 2.229-1 2.229-2.23V6.116a2.234 2.234 0 0 0-2.229-2.23m1.062 7.415c0 .587-.478 1.064-1.063 1.064H6.117a1.065 1.065 0 0 1-1.064-1.064V6.116c0-.586.478-1.064 1.064-1.064h25.846c.585 0 1.063.478 1.063 1.064v5.185zm-22.292 4.954H5.73a1.846 1.846 0 0 0-1.844 1.843v5.004c0 1.017.827 1.843 1.844 1.843h5.003a1.845 1.845 0 0 0 1.844-1.843v-5.004a1.846 1.846 0 0 0-1.844-1.843m.678 6.848a.678.678 0 0 1-.678.677H5.73a.678.678 0 0 1-.678-.677v-5.004c0-.373.304-.677.678-.677h5.003c.374 0 .678.304.678.677v5.004zm-.678 5.2H5.73a1.845 1.845 0 0 0-1.844 1.844v5.003c0 1.017.827 1.845 1.844 1.845h5.003a1.847 1.847 0 0 0 1.844-1.845v-5.003a1.845 1.845 0 0 0-1.844-1.844m.678 6.846a.68.68 0 0 1-.678.679H5.73a.68.68 0 0 1-.678-.679v-5.003c0-.374.304-.678.678-.678h5.003c.374 0 .678.304.678.678v5.003zm10.13-18.894h-5.004a1.845 1.845 0 0 0-1.843 1.843v5.004c0 1.017.826 1.843 1.843 1.843h5.004a1.845 1.845 0 0 0 1.844-1.843v-5.004a1.846 1.846 0 0 0-1.844-1.843m.678 6.848a.678.678 0 0 1-.678.677h-5.004a.678.678 0 0 1-.677-.677v-5.004c0-.373.304-.677.677-.677h5.004c.373 0 .678.304.678.677v5.004zm-.678 5.2h-5.004a1.844 1.844 0 0 0-1.843 1.844v5.003c0 1.017.826 1.845 1.843 1.845h5.004a1.847 1.847 0 0 0 1.844-1.845v-5.003a1.845 1.845 0 0 0-1.844-1.844m.678 6.846a.68.68 0 0 1-.678.679h-5.004a.68.68 0 0 1-.677-.679v-5.003c0-.374.304-.678.677-.678h5.004a.68.68 0 0 1 .678.678v5.003zm10.13-18.894h-5.004a1.846 1.846 0 0 0-1.844 1.843v17.051c0 1.017.827 1.845 1.844 1.845h5.004a1.846 1.846 0 0 0 1.843-1.845v-17.05a1.847 1.847 0 0 0-1.843-1.844m.676 18.894a.68.68 0 0 1-.677.679h-5.004a.68.68 0 0 1-.678-.679v-17.05c0-.373.304-.677.678-.677h5.004c.373 0 .677.304.677.677v17.05z"/><path fill="#010101" d="M10.224 20.083H8.75v-1.474a.518.518 0 1 0-1.037 0v1.474H6.24a.518.518 0 1 0 0 1.037h1.474v1.474a.517.517 0 1 0 1.037 0V21.12h1.474a.52.52 0 1 0-.001-1.037m10.807 0h-3.983a.518.518 0 1 0 0 1.037h3.983a.518.518 0 0 0 0-1.037m10.807 5.024h-3.983a.518.518 0 1 0 0 1.038h3.983a.52.52 0 0 0 0-1.038m0 1.998h-3.983a.519.519 0 1 0 0 1.038h3.983a.52.52 0 0 0 0-1.038m-21.616 3.553a.52.52 0 0 0-.733 0l-1.257 1.257-1.256-1.257a.518.518 0 0 0-.732.732L7.5 32.648l-1.256 1.256a.516.516 0 0 0 .365.884.516.516 0 0 0 .367-.152l1.256-1.256 1.257 1.256a.515.515 0 0 0 .733 0 .518.518 0 0 0 0-.732l-1.257-1.256 1.257-1.258a.518.518 0 0 0 0-.732m10.809 1.471h-3.983a.519.519 0 1 0 0 1.038h3.983a.519.519 0 1 0 0-1.038m-1.992-.533a.52.52 0 1 0 0-1.038.52.52 0 0 0 0 1.038m0 2.104a.52.52 0 1 0-.001 1.039.52.52 0 0 0 .001-1.039"/></svg>