<svg xmlns="http://www.w3.org/2000/svg" width="61.035" height="84" viewBox="0 0 61.035 84"><path fill="#424143" d="M53.669 0H7.365A7.365 7.365 0 0 0 0 7.365v69.27A7.365 7.365 0 0 0 7.365 84h46.304a7.364 7.364 0 0 0 7.365-7.365V7.365A7.363 7.363 0 0 0 53.669 0m-33.37 71.549a3.24 3.24 0 0 1-3.241 3.241h-4.056a3.24 3.24 0 0 1-3.241-3.241v-4.056a3.24 3.24 0 0 1 3.241-3.24h4.056a3.24 3.24 0 0 1 3.241 3.24v4.056zm0-14.938a3.24 3.24 0 0 1-3.241 3.24h-4.056a3.24 3.24 0 0 1-3.241-3.24v-4.057a3.24 3.24 0 0 1 3.241-3.24h4.056a3.24 3.24 0 0 1 3.241 3.24v4.057zm0-14.939a3.24 3.24 0 0 1-3.241 3.241h-4.056a3.24 3.24 0 0 1-3.241-3.241v-4.056a3.24 3.24 0 0 1 3.241-3.241h4.056a3.24 3.24 0 0 1 3.241 3.241v4.056zm15.488 29.877a3.24 3.24 0 0 1-3.24 3.241H28.49a3.24 3.24 0 0 1-3.241-3.241v-4.056a3.24 3.24 0 0 1 3.241-3.24h4.056a3.24 3.24 0 0 1 3.24 3.24v4.056zm0-14.938a3.24 3.24 0 0 1-3.24 3.24H28.49a3.24 3.24 0 0 1-3.241-3.24v-4.057a3.24 3.24 0 0 1 3.241-3.24h4.056a3.24 3.24 0 0 1 3.24 3.24v4.057zm0-14.939a3.24 3.24 0 0 1-3.24 3.241H28.49a3.24 3.24 0 0 1-3.241-3.241v-4.056a3.24 3.24 0 0 1 3.241-3.241h4.056a3.24 3.24 0 0 1 3.24 3.241v4.056zm15.487 29.877a3.24 3.24 0 0 1-3.239 3.241h-4.057a3.24 3.24 0 0 1-3.241-3.241v-4.056a3.24 3.24 0 0 1 3.241-3.24h4.057a3.239 3.239 0 0 1 3.239 3.24v4.056zm0-14.938a3.24 3.24 0 0 1-3.239 3.24h-4.057a3.24 3.24 0 0 1-3.241-3.24v-4.057a3.24 3.24 0 0 1 3.241-3.24h4.057a3.239 3.239 0 0 1 3.239 3.24v4.057zm0-14.939a3.24 3.24 0 0 1-3.239 3.241h-4.057a3.24 3.24 0 0 1-3.241-3.241v-4.056a3.24 3.24 0 0 1 3.241-3.241h4.057a3.24 3.24 0 0 1 3.239 3.241v4.056zm.392-21.938a3.241 3.241 0 0 1-3.242 3.241H12.611a3.24 3.24 0 0 1-3.24-3.241v-7.283a3.24 3.24 0 0 1 3.24-3.241h35.813a3.241 3.241 0 0 1 3.242 3.241v7.283z"/></svg>