<?xml version="1.0" encoding="iso-8859-1"?>
<!-- Generator: Adobe Illustrator 19.0.0, SVG Export Plug-In . SVG Version: 6.00 Build 0)  -->
<svg version="1.1" id="Layer_1" xmlns="http://www.w3.org/2000/svg" xmlns:xlink="http://www.w3.org/1999/xlink" x="0px" y="0px"
	 viewBox="0 0 485 485" style="enable-background:new 0 0 485 485; fill:#4e4d4d" xml:space="preserve">
<g>
	<path d="M425,105V45H293.333V20h-30v25H161.667V20h-30v25H0v360h60v60h425V105H425z M131.667,75v25h30V75h101.667v20h30V75H395v50
		H30V75H131.667z M30,155h365v220H30V155z M455,435H90v-30h335V135h30V435z"/>
	<rect x="97.5" y="285" width="50" height="50"/>
	<rect x="187.5" y="285" width="50" height="50"/>
	<rect x="277.5" y="285" width="50" height="50"/>
	<rect x="187.5" y="195" width="50" height="50"/>
	<rect x="277.5" y="195" width="50" height="50"/>
	<rect x="97.5" y="195" width="50" height="50"/>
</g>
<g>
</g>
<g>
</g>
<g>
</g>
<g>
</g>
<g>
</g>
<g>
</g>
<g>
</g>
<g>
</g>
<g>
</g>
<g>
</g>
<g>
</g>
<g>
</g>
<g>
</g>
<g>
</g>
<g>
</g>
</svg>
