<svg xmlns="http://www.w3.org/2000/svg" width="68.493" height="68.356" viewBox="0 0 68.493 68.356"><path fill="#414141" d="M59.1 22.44l5.063 2.053a1.655 1.655 0 0 0 2.156-.913l2.053-5.061a1.649 1.649 0 0 0-.01-1.268c-.574-1.359-2.506-1.344-3.06.023l-.606 1.499a34.11 34.11 0 0 0-6.35-8.762 34.043 34.043 0 0 0-10.864-7.324C43.268.904 38.792 0 34.178 0s-9.089.904-13.304 2.687a34.039 34.039 0 0 0-10.863 7.324A34.058 34.058 0 0 0 0 34.178c0 4.614.904 9.091 2.686 13.304a34.04 34.04 0 0 0 7.325 10.864 34.055 34.055 0 0 0 10.863 7.324c4.215 1.783 8.691 2.687 13.304 2.687s9.089-.903 13.304-2.687a34.08 34.08 0 0 0 10.864-7.324 34.065 34.065 0 0 0 7.324-10.864 33.911 33.911 0 0 0 2.646-11.61 1.623 1.623 0 0 0-1.625-1.693h-.003c-.872 0-1.582.689-1.625 1.56a30.63 30.63 0 0 1-2.391 10.477 30.77 30.77 0 0 1-6.629 9.83 30.812 30.812 0 0 1-21.865 9.059 30.832 30.832 0 0 1-21.866-9.059A30.815 30.815 0 0 1 3.255 34.18c0-4.175.818-8.225 2.429-12.036a30.833 30.833 0 0 1 6.628-9.829 30.816 30.816 0 0 1 9.83-6.628 30.71 30.71 0 0 1 12.036-2.43c4.176 0 8.225.817 12.037 2.43a30.796 30.796 0 0 1 9.828 6.628 30.871 30.871 0 0 1 5.562 7.569l-1.26-.511c-1.367-.555-2.724.82-2.147 2.179.172.403.495.723.902.888"/><path fill="#414141" d="M34.178 9.439c-.898 0-1.627.729-1.627 1.628v18.508a4.89 4.89 0 0 0-3.255 4.603 4.887 4.887 0 0 0 6.987 4.408l8.481 8.481a1.629 1.629 0 0 0 2.302-2.302l-8.48-8.482a4.891 4.891 0 0 0-2.78-6.709V11.067c0-.899-.729-1.628-1.628-1.628m-1.627 24.739c0-.897.73-1.627 1.627-1.627.898 0 1.628.73 1.628 1.627 0 .435-.17.844-.478 1.151a1.614 1.614 0 0 1-1.15.477 1.63 1.63 0 0 1-1.627-1.628"/></svg>