<svg xmlns="http://www.w3.org/2000/svg" width="76.484" height="76.581" viewBox="0 0 76.484 76.581"><path fill-rule="evenodd" clip-rule="evenodd" fill="#010101" d="M1.393 6.484h10.152v5.781a6.172 6.172 0 0 0 12.342 0V6.484h17.418v5.781a6.172 6.172 0 0 0 12.342 0V6.484h10.077c.767 0 1.394.627 1.394 1.393V35.35a23.08 23.08 0 0 0-5.103-1.268v-9.778a.809.809 0 0 0-.796-.796H5.898a.814.814 0 0 0-.796.796v37.103c0 .428.362.797.796.797h28.458a23.05 23.05 0 0 0 1.799 5.103H1.393A1.399 1.399 0 0 1 0 65.912V7.877c0-.766.627-1.393 1.393-1.393m42.101-2.503a3.981 3.981 0 0 1 7.963 0v8.284a3.981 3.981 0 1 1-7.962 0V3.981zm-29.759 0a3.98 3.98 0 1 1 7.962 0v8.284a3.981 3.981 0 1 1-7.962 0V3.981zm8.771 36.876h-11.1V29.922h11.1v10.935zm20.105-1.978v-8.957H53.71v4.196a23.089 23.089 0 0 0-11.099 4.761m-8.786 16.91h-6.816V44.854h10.266a23.064 23.064 0 0 0-3.45 10.935m-11.319 0h-11.1V44.854h11.1v10.935zm15.602-14.932H27.009V29.922h11.099v10.935zm18.882-3.261c10.766 0 19.494 8.727 19.494 19.493 0 10.765-8.729 19.492-19.494 19.492s-19.492-8.728-19.492-19.492c.001-10.767 8.728-19.493 19.492-19.493m-.898 21.495a2.122 2.122 0 0 1-1.52-2.034V45.972c0-1.172 1.281-2.12 2.453-2.12 1.17 0 2.451.948 2.451 2.12v10.056h12.383c.877 0 1.588.711 1.588 1.59s-.711 1.591-1.588 1.591H57.025c-.212-.001-.748-.043-.933-.118"/></svg>