<svg xmlns="http://www.w3.org/2000/svg" width="45.747" height="50.867" viewBox="0 0 45.747 50.867"><path fill="#566074" d="M36.158 15.924a.942.942 0 0 1-.942-.943V3.536c0-.91-.841-1.65-1.874-1.65H11.639a.943.943 0 1 1 0-1.886h21.702c2.072 0 3.76 1.586 3.76 3.536v11.445a.943.943 0 0 1-.943.943m-15.457 29.38H3.761C1.687 45.304 0 43.718 0 41.769V11.64a.943.943 0 1 1 1.886 0v30.129c0 .908.841 1.648 1.875 1.648h16.94a.943.943 0 1 1 0 1.887"/><path fill="#566074" d="M8.823 12.583H.944a.942.942 0 0 1-.667-1.61L10.973.276a.944.944 0 0 1 1.61.667v8.105c0 1.949-1.687 3.535-3.76 3.535M3.22 10.697h5.603c1.033 0 1.874-.74 1.874-1.649V3.22L3.22 10.697zm18.25 9.458H9.397a.943.943 0 1 1 0-1.886H21.47a.943.943 0 1 1 0 1.886m-.532 5.338H9.396a.942.942 0 1 1 0-1.886h11.542a.943.943 0 1 1 0 1.886m-.177 4.983H9.397a.943.943 0 1 1 0-1.884h11.364a.943.943 0 1 1 0 1.884"/><path fill="#566074" d="M31.189 50.867c-.77 0-1.486-.32-2.018-.904l-4.571-5a435.007 435.007 0 0 0-2.651-2.868l-4.658-4.988c-.879-.938-.674-1.731-.545-2.026.129-.297.566-.985 1.847-.985l5.089.015c.56 0 1.013-.453 1.013-1.009v-11.87c0-1.6 1.303-2.901 2.902-2.901h7.182a2.903 2.903 0 0 1 2.901 2.901V33.1c0 .267.106.521.298.712s.444.297.713.297l5.08-.015c1.293 0 1.73.688 1.859.985.128.297.334 1.088-.545 2.026l-4.658 4.988c-.727.778-1.916 2.065-2.65 2.868l-4.571 5.002a2.709 2.709 0 0 1-2.017.904M18.82 35.981l4.507 4.825c.717.768 1.913 2.063 2.665 2.884l4.572 5.001a.837.837 0 0 0 1.25 0l4.57-5.001c.739-.808 1.934-2.103 2.665-2.884l4.507-4.825-4.857.015c-.78 0-1.506-.302-2.055-.85a2.877 2.877 0 0 1-.85-2.046V21.232c0-.56-.455-1.015-1.016-1.015h-7.182c-.561 0-1.016.455-1.016 1.015V33.1a2.9 2.9 0 0 1-2.895 2.896l-4.865-.015z"/></svg>