<svg xmlns="http://www.w3.org/2000/svg" width="64" height="64.003" viewBox="0 0 64 64.003"><path fill="#010101" d="M59 64.003H5c-2.757 0-5-2.243-5-5v-39h2v39c0 1.654 1.346 3 3 3h54c1.654 0 3-1.346 3-3v-39h2v39c0 2.757-2.243 5-5 5z"/><path fill="#010101" d="M1.042 20.947a1 1 0 0 1-.538-1.844l5.959-3.794a1 1 0 0 1 1.074 1.688l-5.959 3.794a1.001 1.001 0 0 1-.536.156zM42.518 8.006a.996.996 0 0 1-.534-.155L33.502 2.48c-1.021-.634-2.15-.636-3.171.003l-8.424 5.364a.999.999 0 1 1-1.074-1.686L29.264.792c1.685-1.054 3.613-1.054 5.302-.006l8.489 5.375a1 1 0 0 1-.537 1.845zm20.44 12.941a.996.996 0 0 1-.534-.155l-5.958-3.772a1 1 0 1 1 1.07-1.689l5.958 3.772a1 1 0 0 1-.536 1.844zM31.912 52.992c-.904 0-1.806-.264-2.644-.789L.504 33.886a1 1 0 1 1 1.074-1.688l28.759 18.313c1.016.637 2.144.635 3.171-.006l28.916-18.307a1 1 0 1 1 1.07 1.69L34.571 52.2c-.847.528-1.755.792-2.659.792z"/><path fill="#010101" d="M57 32.003a1 1 0 0 1-1-1v-20c0-1.654-1.346-3-3-3H11c-1.654 0-3 1.346-3 3v20a1 1 0 1 1-2 0v-20c0-2.757 2.243-5 5-5h42c2.757 0 5 2.243 5 5v20a1 1 0 0 1-1 1z"/><path fill="#010101" d="M34.288 42.43c-2.982 0-7.178-.573-10.738-3.2-5.319-3.926-6.849-11.994-3.48-18.369 2.878-5.441 9.231-8.306 15.461-6.964 5.879 1.267 10.239 6.358 10.368 12.104l.005.488c.086 5.085-1.605 7.166-3.04 8.016-1.572.932-3.603.863-5.437-.18C35.93 33.472 35 32.182 35 30.959v-9.956a1 1 0 1 1 2 0v9.956c0 .397.497 1.104 1.417 1.628.927.529 2.315.857 3.427.197 1.383-.819 2.114-3.042 2.06-6.26l-.005-.483c-.107-4.828-3.805-9.115-8.79-10.19-5.261-1.135-10.849 1.363-13.271 5.944-2.557 4.84-2.171 12.083 2.9 15.825 3.22 2.375 7.101 2.84 9.789 2.809h.011a1 1 0 0 1 .011 2l-.261.001z"/><path fill="#010101" d="M31.491 34.941a6.87 6.87 0 0 1-2.021-.324c-1.836-.564-3.319-2.135-3.871-4.098-.931-3.303.32-7.742 4.026-9.452 2.054-.948 4.003-.672 5.637-.278a1 1 0 0 1 .737 1.207.997.997 0 0 1-1.206.738c-1.868-.45-3.124-.407-4.33.149-2.699 1.246-3.627 4.652-2.938 7.094.364 1.296 1.358 2.366 2.533 2.729.818.251 3.307 1.019 4.737-2.402a1 1 0 1 1 1.846.773c-1.057 2.522-2.879 3.863-5.15 3.864z"/></svg>