<svg xmlns="http://www.w3.org/2000/svg" width="48.205" height="48.004" viewBox="0 0 48.205 48.004"><path fill="#464646" d="M37.291 29.284a1.001 1.001 0 0 1-.824-1.566l6.9-10.084a.996.996 0 0 0 .119-.902L38.491 2.665A1.001 1.001 0 0 0 37.549 2H22.187a.997.997 0 0 0-.823.434l-2.842 4.151a1.001 1.001 0 0 1-1.389.262 1.002 1.002 0 0 1-.261-1.391l2.842-4.154A3 3 0 0 1 22.187 0h15.362c1.266 0 2.403.802 2.827 1.996l4.995 14.067c.32.902.188 1.914-.354 2.703l-6.899 10.082a.999.999 0 0 1-.827.436M22.253 47.711a.991.991 0 0 1-.565-.176L1.3 33.515a3.004 3.004 0 0 1-.773-4.172l12.727-18.597a1.002 1.002 0 0 1 1.651 1.13L2.177 30.475a1.003 1.003 0 0 0 .257 1.393l20.387 14.02c.455.313.57.936.258 1.391a1.004 1.004 0 0 1-.826.432"/><path fill="#464646" d="M4.168 17.933a.998.998 0 0 1-.495-.132C.69 16.095.065 14.249.065 13.001.064 8.44 8.233 5 19.066 5c5.681 0 10.988 1.006 14.561 2.761a1 1 0 0 1-.881 1.795C29.439 7.932 24.452 7 19.066 7 9.047 7 2.064 10.162 2.064 13.001c0 1.017.924 2.104 2.602 3.063a.999.999 0 0 1 .371 1.364.997.997 0 0 1-.869.505"/><path fill="#464646" d="M33.181 13.203a4.003 4.003 0 0 1-3.535-5.867 1.002 1.002 0 0 1 1.771.933 1.987 1.987 0 0 0-.141 1.524c.158.51.505.929.978 1.178s1.016.3 1.523.142a1.98 1.98 0 0 0 1.177-.979c.25-.473.301-1.014.143-1.524a1.985 1.985 0 0 0-.979-1.178 1 1 0 0 1 .933-1.77 3.98 3.98 0 0 1 1.957 2.355 3.984 3.984 0 0 1-.283 3.05 3.976 3.976 0 0 1-2.356 1.955 3.984 3.984 0 0 1-1.188.181m9.342 34.801a.992.992 0 0 1-.453-.109l-7.118-3.622-7.12 3.622a1.002 1.002 0 0 1-1.441-1.047l1.246-7.89-5.646-5.651a1.002 1.002 0 0 1 .551-1.696l7.889-1.253 3.631-7.115a1 1 0 0 1 1.782 0l3.629 7.115 7.891 1.253a1 1 0 0 1 .55 1.696l-5.646 5.651 1.246 7.89a1.001 1.001 0 0 1-.991 1.156m-7.571-5.855c.155 0 .312.036.453.109l5.825 2.965-1.019-6.457a.996.996 0 0 1 .28-.862l4.62-4.624-6.457-1.026a.998.998 0 0 1-.733-.533l-2.97-5.822-2.971 5.822a1 1 0 0 1-.733.533l-6.456 1.026 4.619 4.624a.994.994 0 0 1 .28.862l-1.019 6.457 5.826-2.965c.144-.072.3-.109.455-.109"/></svg>