<svg xmlns="http://www.w3.org/2000/svg" width="287.942" height="115.038" viewBox="0 0 287.942 115.038"><path fill="#3BAEA9" d="M132.725 32.324v19.409h6.65v3.208h-10.063V32.324zm22.368 3.208h-9.069v5.435h8.805v3.208h-8.805v7.558h9.069v3.208h-12.481V32.324h12.481zm16.113 7.632h9.346v.747c0 1.699-.199 3.203-.601 4.512-.392 1.211-1.05 2.344-1.978 3.398-2.1 2.364-4.771 3.545-8.013 3.545-3.164 0-5.874-1.142-8.13-3.428-2.256-2.295-3.384-5.048-3.384-8.261 0-3.282 1.147-6.065 3.442-8.35 2.295-2.295 5.088-3.442 8.379-3.442 1.768 0 3.418.361 4.951 1.084 1.465.722 2.905 1.894 4.321 3.515l-2.432 2.329c-1.855-2.47-4.116-3.706-6.782-3.706-2.393 0-4.399.826-6.021 2.476-1.622 1.621-2.432 3.652-2.432 6.094 0 2.519.903 4.594 2.71 6.225 1.689 1.514 3.521 2.271 5.493 2.271 1.68 0 3.188-.567 4.526-1.699 1.338-1.143 2.085-2.51 2.241-4.102h-5.64v-3.208zm25.899 6.284h-9.683l-2.52 5.493h-3.677l11.191-24.038 10.796 24.038h-3.735l-2.372-5.493zm-1.391-3.208l-3.354-7.69-3.516 7.69h6.87zm13.739-13.916v19.409h6.651v3.208H206.04V32.324z"/><path fill="#36413F" d="M219.001 32.321h8.76c2.08 0 3.66.501 4.74 1.5 1.08 1.001 1.62 2.441 1.62 4.321 0 1.139-.205 2.085-.615 2.835s-1.035 1.384-1.875 1.905c.84.16 1.555.405 2.145.734.59.33 1.07.736 1.44 1.216s.635 1.02.795 1.619c.16.6.24 1.241.24 1.92 0 1.061-.186 2-.555 2.821a5.742 5.742 0 0 1-1.561 2.07c-.67.559-1.485.979-2.445 1.26-.96.28-2.04.42-3.239.42h-9.45V32.321zm5.88 8.88h1.08c1.84 0 2.76-.729 2.76-2.19 0-1.459-.92-2.19-2.76-2.19h-1.08v4.38zm0 9.181h1.29c1.479 0 2.54-.19 3.18-.57.64-.38.96-.991.96-1.83 0-.84-.32-1.45-.96-1.83s-1.7-.57-3.18-.57h-1.29v4.8zm13.68-6.751c0-1.68.311-3.245.931-4.695a11.685 11.685 0 0 1 2.58-3.795c1.1-1.08 2.415-1.925 3.944-2.535 1.53-.61 3.215-.915 5.056-.915 1.819 0 3.499.305 5.04.915 1.539.61 2.864 1.455 3.975 2.535a11.602 11.602 0 0 1 2.595 3.795c.62 1.45.931 3.015.931 4.695s-.311 3.245-.931 4.695a11.587 11.587 0 0 1-2.595 3.795c-1.11 1.08-2.436 1.926-3.975 2.535-1.541.61-3.221.915-5.04.915-1.841 0-3.525-.305-5.056-.915-1.529-.609-2.845-1.455-3.944-2.535a11.685 11.685 0 0 1-2.58-3.795c-.621-1.45-.931-3.014-.931-4.695m6.15 0c0 .9.17 1.73.51 2.49.34.76.8 1.42 1.38 1.98s1.255.995 2.025 1.305c.77.31 1.585.465 2.445.465a6.48 6.48 0 0 0 4.484-1.77 6.197 6.197 0 0 0 1.396-1.98c.34-.76.51-1.59.51-2.49s-.17-1.729-.51-2.49a6.182 6.182 0 0 0-1.396-1.979 6.48 6.48 0 0 0-4.484-1.77c-.86 0-1.676.155-2.445.465a6.227 6.227 0 0 0-3.405 3.284 6.03 6.03 0 0 0-.51 2.49m27.96-.75l-7.05-10.56h7.26l3.061 5.85 3.78-5.85h7.259l-7.469 10.56 8.43 12.06h-7.171l-4.53-7.379-5.309 7.379h-7.111z"/><path fill="#595A5C" d="M131.459 76.657v4.285h-1.593V70.387h1.805c.884 0 1.552.063 2.003.186.455.122.857.354 1.203.696.606.592.909 1.34.909 2.242 0 .966-.324 1.731-.971 2.297s-1.52.849-2.618.849h-.738zm0-1.478h.595c1.463 0 2.194-.562 2.194-1.688 0-1.091-.754-1.635-2.263-1.635h-.526v3.323zm15.961-4.792v6.357c0 .907.147 1.57.444 1.989.443.606 1.064.909 1.867.909.806 0 1.43-.303 1.873-.909.295-.405.443-1.068.443-1.989v-6.357h1.593v6.795c0 1.112-.347 2.028-1.039 2.748-.779.802-1.737 1.203-2.87 1.203-1.136 0-2.09-.401-2.865-1.203-.692-.72-1.039-1.636-1.039-2.748v-6.795h1.593zm17.15 10.555V70.387h1.586c.706 0 1.27.055 1.688.164.423.109.781.294 1.073.554.296.269.531.604.704 1.005.178.405.267.815.267 1.231 0 .756-.289 1.396-.868 1.92a2.542 2.542 0 0 1 1.326 1.005c.328.474.492 1.025.492 1.654 0 .825-.292 1.522-.875 2.092a2.861 2.861 0 0 1-1.183.731c-.479.132-1.078.198-1.798.198h-2.412zm1.593-6.023h.499c.593 0 1.026-.131 1.302-.394.276-.262.414-.648.414-1.158 0-.497-.142-.874-.424-1.132-.282-.257-.692-.386-1.23-.386h-.561v3.07zm0 4.526h.984c.72 0 1.249-.142 1.586-.424.355-.305.533-.692.533-1.162 0-.456-.171-.839-.513-1.148-.333-.306-.928-.458-1.784-.458h-.807v3.192zm16.678-9.058v9.058h3.103v1.497h-4.696V70.387zm13.014 0h1.593v10.555h-1.593zm18.497 1.572l-1.292.766c-.241-.42-.472-.693-.69-.82-.228-.146-.521-.219-.882-.219-.442 0-.809.125-1.101.376a1.165 1.165 0 0 0-.438.93c0 .515.382.93 1.148 1.244l1.053.431c.856.347 1.483.77 1.88 1.268.396.5.594 1.111.594 1.836 0 .971-.322 1.772-.97 2.406-.651.637-1.461.957-2.427.957-.916 0-1.673-.271-2.27-.813-.588-.542-.955-1.306-1.101-2.29l1.613-.355c.073.62.2 1.048.383 1.285.328.456.807.684 1.435.684.498 0 .91-.166 1.238-.499s.492-.754.492-1.265c0-.205-.028-.393-.085-.564a1.417 1.417 0 0 0-.269-.471 2.052 2.052 0 0 0-.467-.404 4.502 4.502 0 0 0-.684-.358l-1.019-.424c-1.444-.61-2.167-1.504-2.167-2.68 0-.793.303-1.456.909-1.989.606-.538 1.36-.807 2.263-.807 1.22-.002 2.17.59 2.854 1.775m12.187 2.557h4.553v-4.129h1.593v10.555h-1.593v-4.929h-4.553v4.929h-1.593V70.387h1.593zm17.075-4.129h1.593v10.555h-1.593zm12.529 10.555V69.669l7.697 8.053v-7.335h1.593v11.197l-7.698-8.032v7.39zm25.756-5.496h4.361v.349c0 .794-.094 1.495-.28 2.105a4.476 4.476 0 0 1-.923 1.586c-.979 1.103-2.227 1.654-3.739 1.654-1.477 0-2.741-.533-3.794-1.6-1.053-1.071-1.579-2.356-1.579-3.855 0-1.531.535-2.83 1.606-3.896 1.071-1.071 2.374-1.606 3.911-1.606.824 0 1.594.168 2.31.506.684.337 1.355.884 2.017 1.641l-1.135 1.087c-.866-1.153-1.921-1.729-3.165-1.729-1.116 0-2.053.385-2.81 1.156-.757.755-1.134 1.703-1.134 2.843 0 1.176.421 2.145 1.264 2.906.788.706 1.643 1.059 2.563 1.059.784 0 1.488-.265 2.112-.793.624-.533.973-1.171 1.046-1.914h-2.632v-1.499z"/><path fill-rule="evenodd" clip-rule="evenodd" fill="#36413F" d="M58.608 114.629l.127-60.031 50.824-29.345.705 59.553z"/><path fill-rule="evenodd" clip-rule="evenodd" fill="#3BAEA9" d="M3.583 20.429l17.485 10.047L43.75 17.381l-.309 5.672-17.6 10.164 4.544 2.61L43.82 28.07l-.306 5.672-8.358 4.826 4.227 2.431 4.443-2.567-.269 4.967 7.972 4.576.202-38.236L38.968 0 3.583 20.429zM38.904 1.857l11.285 8.721-11.388 6.95.103-15.671zm67.558 19.603L88.978 31.506 66.3 18.411l.305 5.675 17.6 10.161-4.543 2.612-13.436-7.758.305 5.673 8.362 4.826-4.228 2.43-4.446-2.568.269 4.969-7.968 4.576-.207-38.237 12.763-9.739 35.386 20.429zM71.141 2.889l-11.28 8.72 11.386 6.949-.106-15.669z"/><path fill-rule="evenodd" clip-rule="evenodd" fill="#36413F" d="M51.856 115.038L.252 84.755 0 25.104l51.813 30.328z"/></svg>