<svg xmlns="http://www.w3.org/2000/svg" width="116.563" height="106.13" viewBox="0 0 116.563 106.13"><path fill="#010101" d="M27.77 27.928h61.023v2H27.77zm0 17.862h61.023v2H27.77zm0 17.861h61.023v2H27.77z"/><path fill="#010101" d="M2.561 106.13c-1.238 0-2.561-.949-2.561-3.611V6c0-3.309 2.691-6 6-6h104.563c3.309 0 6 2.691 6 6v78.437c0 3.309-2.691 6-6 6H24.819c-2.492 0-6.116 1.459-7.913 3.186L5.298 104.774c-.937.9-1.858 1.356-2.737 1.356zM6 2C3.794 2 2 3.794 2 6v96.519c0 .934.235 1.611.561 1.611.122 0 .581-.058 1.353-.798L15.521 92.18c2.184-2.099 6.269-3.743 9.298-3.743h85.744c2.206 0 4-1.794 4-4V6c0-2.206-1.794-4-4-4H6z"/><path fill="#010101" d="M2.561 106.13c-1.238 0-2.561-.949-2.561-3.611V6c0-3.309 2.691-6 6-6h104.563c3.309 0 6 2.691 6 6v78.437c0 3.309-2.691 6-6 6H24.819c-2.492 0-6.116 1.459-7.913 3.186L5.298 104.774c-.937.9-1.858 1.356-2.737 1.356zM6 2C3.794 2 2 3.794 2 6v96.519c0 .934.235 1.611.561 1.611.122 0 .581-.058 1.353-.798L15.521 92.18c2.184-2.099 6.269-3.743 9.298-3.743h85.744c2.206 0 4-1.794 4-4V6c0-2.206-1.794-4-4-4H6z"/><path fill="#010101" d="M27.77 27.928h61.023v2H27.77zm0 17.862h61.023v2H27.77zm0 17.861h61.023v2H27.77z"/></svg>