<svg xmlns="http://www.w3.org/2000/svg" width="50.649" height="45.713" viewBox="0 0 50.649 45.713"><path fill="#566074" d="M36.49 10.731a.943.943 0 0 1-.943-.943V3.561c0-.923-.852-1.674-1.9-1.674H11.74a.943.943 0 0 1 0-1.887h21.906c2.088 0 3.787 1.597 3.787 3.56v6.228a.942.942 0 0 1-.943.943m-2.844 34.982H3.787C1.699 45.713 0 44.115 0 42.152V11.741a.943.943 0 1 1 1.886 0v30.412c0 .924.853 1.675 1.901 1.675h29.859c1.048 0 1.9-.751 1.9-1.675v-5.325a.943.943 0 1 1 1.886 0v5.325c.001 1.962-1.698 3.56-3.786 3.56"/><path fill="#566074" d="M8.897 12.684H.943a.944.944 0 0 1-.666-1.61L11.074.277a.942.942 0 0 1 1.609.667v8.18c0 1.963-1.698 3.56-3.786 3.56M3.22 10.798h5.677c1.048 0 1.901-.751 1.901-1.674V3.22L3.22 10.798zm22.346 9.32H9.248a.943.943 0 1 1 0-1.886h16.319a.943.943 0 1 1-.001 1.886m-5.149 5.327H9.248a.943.943 0 1 1 0-1.885h11.169a.943.943 0 1 1 0 1.885m-2.576 5.327H9.247a.943.943 0 1 1 0-1.885h8.594a.943.943 0 1 1 0 1.885m15.31 5.912a.943.943 0 0 1-.657-1.619l15.538-15.093c.956-.93.978-2.464.05-3.42l-4.511-4.643a2.404 2.404 0 0 0-1.7-.734 2.37 2.37 0 0 0-1.72.683L24.613 26.952a.944.944 0 0 1-1.314-1.353l15.539-15.095a4.275 4.275 0 0 1 3.061-1.217 4.275 4.275 0 0 1 3.025 1.306l4.511 4.642a4.311 4.311 0 0 1-.089 6.088L33.808 36.417a.935.935 0 0 1-.657.267"/><path fill="#566074" d="M19.442 40.801a.943.943 0 0 1-.899-1.225l4.169-13.25a.942.942 0 1 1 1.798.566l-3.644 11.584 11.684-3.307a.942.942 0 1 1 .514 1.814l-13.365 3.783a.982.982 0 0 1-.257.035"/><path fill="#566074" d="M32.88 36.226a.939.939 0 0 1-.676-.286l-8.156-8.395a.943.943 0 1 1 1.352-1.314l8.155 8.395a.943.943 0 0 1-.675 1.6m-7.658 2.171a.941.941 0 0 1-.667-.276l-3.215-3.215a.944.944 0 0 1 1.334-1.334l3.215 3.215a.944.944 0 0 1-.667 1.61"/></svg>