<svg xmlns="http://www.w3.org/2000/svg" width="168.969" height="137.443" viewBox="0 0 168.969 137.443"><path fill="#333" d="M96.066 86.686l-67.397-42.44a2.92 2.92 0 0 0-4.024.915 2.915 2.915 0 0 0 .916 4.022l67.397 42.439a2.916 2.916 0 0 0 3.108-4.936m-6.832 14.096l-67.397-42.44a2.918 2.918 0 0 0-4.024.915 2.915 2.915 0 0 0 .915 4.021l67.396 42.44a2.918 2.918 0 0 0 4.026-.913 2.919 2.919 0 0 0-.916-4.023m11.913-51.157l28.472 17.854a2.913 2.913 0 0 0 4.021-.922 2.916 2.916 0 0 0-.921-4.02l-28.475-17.853a2.918 2.918 0 0 0-4.02.921 2.917 2.917 0 0 0 .923 4.02m19.905 20.65L92.361 52.359a2.915 2.915 0 0 0-4.019.932 2.916 2.916 0 0 0 .929 4.018l28.691 17.915a2.92 2.92 0 0 0 4.021-.93 2.918 2.918 0 0 0-.931-4.019M37.52 40.318l28.475 17.854a2.886 2.886 0 0 0 1.766.416c.073.006.145.03.218.03.551 0 1.101-.156 1.584-.468l23.774-15.246a2.918 2.918 0 0 0 1.365-2.477c0-.022-.009-.043-.01-.064.001-.024.01-.046.01-.07a2.917 2.917 0 0 0-1.369-2.45L64.859 19.99a2.88 2.88 0 0 0-1.766-.416c-.073-.006-.145-.03-.218-.03-.551 0-1.101.155-1.584.467L37.516 35.258a2.919 2.919 0 0 0-1.364 2.476c0 .022.008.043.008.064 0 .024-.008.047-.008.071.006.995.523 1.92 1.368 2.449m25.583-14.281l23.141 14.388-18.493 11.7-23.14-14.387 18.492-11.701zm46.283 51.977l-28.91-17.977a2.916 2.916 0 1 0-3.08 4.954l28.91 17.976a2.913 2.913 0 0 0 4.016-.936 2.916 2.916 0 0 0-.936-4.017"/><path fill="#333" d="M166.057 84.214l.004-.014-10.647-6.677 10.703-6.717a2.92 2.92 0 0 0 0-4.938L62.224.449a2.914 2.914 0 0 0-3.109 0L13.869 28.906C6.093 33.805 0 44.839 0 54.028v1.555c0 9.192 6.093 20.227 13.869 25.122 0 0 85.785 54.693 87.409 55.59 1.392.769 2.927 1.148 4.554 1.148 2.422 0 5.049-.845 7.707-2.519l47.484-29.901c4.455-2.807 7.946-9.126 7.946-14.393 0-2.849-1.078-5.111-2.912-6.416m-70.14 41.265L16.978 75.771C10.937 71.967 5.834 62.722 5.834 55.583v-1.555c0-7.138 5.103-16.381 11.144-20.185l43.69-27.479 98.344 61.927-48.581 30.584c-8.146 5.129-14.528 16.688-14.528 26.314 0 .1.013.191.014.29m61.999-25.393l-47.484 29.902c-2.526 1.59-4.835 2.026-6.333 1.2-1.5-.828-2.361-3.016-2.361-5.999 0-7.561 5.405-17.349 11.802-21.378l36.39-22.843 6.835 4.286-47.83 30.12a2.916 2.916 0 1 0 3.107 4.935l48.982-30.843c1.036-.651 1.602-.604 1.686-.56.086.049.428.5.428 1.723-.002 3.287-2.441 7.707-5.222 9.457"/></svg>