<svg xmlns="http://www.w3.org/2000/svg" width="53.048" height="53.698" viewBox="0 0 53.048 53.698"><path fill="#566074" d="M36.563 26.484a.942.942 0 0 1-.942-.943V3.565c0-.926-.854-1.679-1.907-1.679h-21.95A.944.944 0 0 1 11.763 0h21.95c2.092 0 3.793 1.599 3.793 3.565v21.976a.942.942 0 0 1-.943.943M19.864 45.803H3.793c-2.092 0-3.793-1.6-3.793-3.564V11.763a.943.943 0 1 1 1.886 0v30.475c0 .925.855 1.679 1.907 1.679h16.071a.943.943 0 0 1 0 1.886"/><path fill="#566074" d="M8.913 12.706H.943a.944.944 0 0 1-.667-1.61L11.096.277a.942.942 0 0 1 1.61.667v8.197c0 1.966-1.701 3.565-3.793 3.565M3.22 10.82h5.693c1.052 0 1.907-.753 1.907-1.679V3.22l-7.6 7.6zm26.14 9.335H9.264a.943.943 0 1 1 0-1.886H29.36a.942.942 0 1 1 0 1.886m0 5.338H9.264a.943.943 0 1 1 0-1.886H29.36a.943.943 0 0 1 0 1.886m-7.368 5.339H9.264a.942.942 0 1 1 0-1.886h12.728a.943.943 0 1 1 0 1.886M33.07 51.111c-2.425 0-4.755-.744-6.738-2.154a11.573 11.573 0 0 1-4.737-7.551 11.568 11.568 0 0 1 1.991-8.69 11.676 11.676 0 0 1 9.501-4.899c2.426 0 4.756.744 6.738 2.153a11.564 11.564 0 0 1 4.737 7.552 11.57 11.57 0 0 1-1.991 8.69 11.67 11.67 0 0 1-9.501 4.899m.018-21.41a9.78 9.78 0 0 0-7.964 4.107 9.692 9.692 0 0 0-1.668 7.282 9.693 9.693 0 0 0 3.969 6.329 9.703 9.703 0 0 0 5.646 1.806 9.782 9.782 0 0 0 7.965-4.106 9.697 9.697 0 0 0 1.67-7.283 9.703 9.703 0 0 0-3.972-6.329 9.701 9.701 0 0 0-5.646-1.806"/><path fill="#566074" d="M52.104 53.698a.948.948 0 0 1-.545-.174l-9.887-7.027a.943.943 0 0 1 1.092-1.537l9.886 7.026a.942.942 0 0 1-.546 1.712"/></svg>