<svg xmlns="http://www.w3.org/2000/svg" width="43.629" height="50.554" viewBox="0 0 43.629 50.554"><clipPath id="a"/><path clip-path="url(#a)" fill="#080017" d="M33.624 41.352c-5.517 0-10.005-4.488-10.005-10.005s4.488-10.006 10.005-10.006c1.818 0 3.604.496 5.162 1.435a1.221 1.221 0 0 1-1.26 2.092 7.558 7.558 0 0 0-3.902-1.084c-4.17 0-7.564 3.393-7.564 7.563s3.394 7.563 7.564 7.563 7.563-3.394 7.563-7.563c0-.598-.071-1.196-.211-1.775a1.221 1.221 0 0 1 2.373-.574c.186.768.279 1.558.279 2.349.001 5.516-4.487 10.005-10.004 10.005"/><path clip-path="url(#a)" fill="#080017" d="M33.624 35.869c-.315 0-.62-.122-.849-.343l-3.743-3.622a1.221 1.221 0 1 1 1.696-1.755l2.775 2.683 6.062-7.677a1.22 1.22 0 1 1 1.916 1.514l-6.898 8.736a1.22 1.22 0 0 1-.959.464M22.201 20.088H9.172a1.22 1.22 0 1 1 0-2.442h13.029a1.22 1.22 0 1 1 0 2.442m0 6.41H9.172a1.22 1.22 0 1 1 0-2.442h13.029a1.22 1.22 0 1 1 0 2.442m-4.379 6.409H9.171a1.22 1.22 0 1 1 0-2.442h8.651a1.22 1.22 0 1 1 0 2.442"/><path clip-path="url(#a)" fill="#080017" d="M30.035 50.554H4.81A4.815 4.815 0 0 1 0 45.744V10.393a4.816 4.816 0 0 1 4.81-4.81h2.616a1.22 1.22 0 1 1 0 2.442H4.81a2.37 2.37 0 0 0-2.368 2.368v35.352a2.37 2.37 0 0 0 2.368 2.368h25.225a2.371 2.371 0 0 0 2.368-2.368v-2.01a1.22 1.22 0 1 1 2.442 0v2.01a4.815 4.815 0 0 1-4.81 4.809m3.589-30.053a1.22 1.22 0 0 1-1.221-1.221v-8.887a2.371 2.371 0 0 0-2.368-2.368h-2.616a1.22 1.22 0 0 1 0-2.442h2.616a4.815 4.815 0 0 1 4.81 4.81v8.887a1.22 1.22 0 0 1-1.221 1.221"/><path clip-path="url(#a)" fill="#080017" d="M28.64 11.372H6.206v-7.65h6.427A4.952 4.952 0 0 1 17.424 0a4.952 4.952 0 0 1 4.79 3.722h6.426v7.65zM8.646 8.93h17.552V6.164h-6.274V4.943a2.504 2.504 0 0 0-2.501-2.501 2.504 2.504 0 0 0-2.502 2.501v1.221H8.646V8.93zm13.72-3.987h.011-.011z"/></svg>