<svg xmlns="http://www.w3.org/2000/svg" width="62.343" height="63.244" viewBox="0 0 62.343 63.244"><path fill="#474747" d="M50.18 55.309c-.442 0-.885-.099-1.299-.298L26.245 44.146a1 1 0 0 1-.343-1.534L43.497 21.02 22.244 35.631a1 1 0 1 1-1.133-1.649l27-18.562a.999.999 0 0 1 1.342 1.456L28.255 42.893l21.491 10.315a.988.988 0 0 0 .888-.011.987.987 0 0 0 .528-.712l9.181-50.483L2 30.231l15.104 7.108a1 1 0 1 1-.852 1.81L1.148 32.042A1.983 1.983 0 0 1 0 30.242a1.984 1.984 0 0 1 1.129-1.812L59.471.201a1.992 1.992 0 0 1 2.08.207 1.99 1.99 0 0 1 .76 1.95L53.13 52.843a2.976 2.976 0 0 1-1.587 2.136c-.431.219-.897.33-1.363.33zm-23.503 7.935a1 1 0 0 1-.843-1.537l7-11a1 1 0 1 1 1.688 1.074l-7 11a1.002 1.002 0 0 1-.845.463z"/><path fill="#474747" d="M26.678 63.244a1 1 0 0 1-1-1v-19a1 1 0 1 1 2 0v19a1 1 0 0 1-1 1z"/><path fill="#474747" d="M26.678 63.244a.999.999 0 0 1-.923-.615l-10-24a1 1 0 1 1 1.846-.77l10 24a1 1 0 0 1-.923 1.385z"/></svg>